<svg xmlns="http://www.w3.org/2000/svg" viewBox="0 0 38.9 32.2">
  <path d="M33.4 1.1c0 .1 0 .1-.1.2-.2.6-.5 1.2-.7 1.8-.1.3-.1.7-.1 1 0 .1-.1.2-.1.3l-.5.5c-.4.5-.7 1-1 1.6-.1.2-.2.5-.3.8-.1.2-.3.5-.5.7l-.6.3h-1c-.1 0-.2-.1-.3-.2-.1-.1-.1-.3-.1-.5 0-.5.1-.9.2-1.4 0-.2.1-.4.1-.6v-.7c-.1.1-.2.1-.3.2-.2.2-.4.4-.5.6-.2.4-.3.9-.3 1.3 0 .5.2.9.2 1.4v1c-.1.5-.2 1.1-.4 1.6-.2.3-.3.7-.5 1-.1.1-.2.3-.3.4-.2.3-.4.5-.6.8-.3.3-.6.7-.9 1-.2.3-.5.5-.7.8-.2.2-.4.4-.6.7.1.1.2.2.3.4 3.3 3.6 6.6 7.2 10 10.7.8.9 1.6 1.7 2.4 2.6.2.3.5.5.8.8.2.2.4.4.6.7h-7.8l-.4-.4c-.7-.8-1.5-1.6-2.2-2.4-2.1-2.2-4.1-4.5-6.2-6.7-.4-.5-.9-.9-1.3-1.4-.4.4-.7.7-1 1.1-2.4 2.6-4.8 5.1-7.2 7.7-.6.6-1.1 1.2-1.7 1.8l-.3.3c-.2.1-.5 0-.7 0H1.3c.1-.2.2-.3.4-.4C3.8 28.2 6 26 8.1 23.7c1.8-1.9 3.5-3.7 5.3-5.6.6-.6 1.1-1.2 1.7-1.8.2-.2.4-.4.5-.6-.1-.2-.3-.3-.4-.5-.2-.2-.3-.4-.5-.5-.4-.4-.7-.8-1.1-1.2-.4-.5-.8-1-1.1-1.6l-.3-.6c-.1-.3-.2-.6-.4-.9-.2-.7-.2-1.3-.2-2 0-.4.1-.7.1-1.1 0-.5 0-1-.2-1.4-.1-.3-.3-.5-.6-.7-.1-.1-.2-.2-.4-.3-.1.2-.1.4-.1.6 0 .3 0 .5.1.8.1.4.2.9.2 1.4 0 .1 0 .3-.1.4 0 .1-.2.1-.3.1-.3 0-.5.1-.8.1-.4 0-.9-.2-1.1-.6-.1-.2-.3-.3-.4-.6 0-.4-.1-.7-.2-.9-.2-.5-.4-.9-.7-1.3l-.7-.7c-.1-.1-.1-.2-.1-.3 0-.3 0-.6-.1-.9-.1-.4-.3-.8-.4-1.1-.1-.3-.3-.6-.4-.8.3 0 .5.1.8.2.4.1.7.2 1 .3.1 0 .2.1.4 0 .4-.1.7-.2 1.1-.3.2 0 .3-.1.5-.1h.7c.4 0 .7.1 1.1.2 0 .1.2.2.3.2.3.2.6.3.8.5s.4.5.6.7c.2.2.4.5.5.7.2.3.4.7.5 1 .3.5.5 1 .7 1.4.1.2.2.3.4.5.1.1.2.3.3.4.2.2.5.3.7.4.2.1.3.2.5.3-.1.2-.2.3-.4.5.2.2.4.5.6.7l2.4 2.7c.1.1.2.3.4.4l.2-.2c.3-.4.6-.7.9-1 .6-.7 1.2-1.4 1.8-2 .1-.2.3-.3.4-.5-.1-.2-.2-.3-.3-.5 0-.1.1-.1.1-.1l.9-.6c.3-.2.4-.4.6-.6.3-.3.4-.7.6-1.1.2-.5.5-1 .8-1.4l.3-.6c.1-.1.2-.3.3-.4.1-.2.3-.3.4-.5.1-.1.2-.2.4-.3.2-.2.5-.3.8-.5.2-.1.4-.1.6-.2s.4-.1.6-.1c.4 0 .7-.1 1.1 0 .3 0 .6.1.8.2.1 0 .3.1.4.1.1 0 .2.1.3 0 .2 0 .4-.1.7-.2s.5-.1.8-.2h.6z"/>
</svg>
