<svg xmlns="http://www.w3.org/2000/svg" viewBox="0 0 341.35 40.994">
  <path fill="white"  d="M50.939 33.628V5.841h3.686v11.41H69.06V5.841h3.687v27.787H69.06V20.55H54.625v13.078zM87.743 22.219h9.391l-2.872-7.684c-.893-2.329-1.552-4.269-1.979-5.782a35.418 35.418 0 0 1-1.513 5.317l-3.027 8.149zm-8.032 11.409L90.382 5.841h3.958l11.37 27.787h-4.191l-3.221-8.421H86.657l-3.027 8.421h-3.919M130.742 5.849h3.686v16.067a18.88 18.88 0 0 1-.931 6.597 7.93 7.93 0 0 1-3.454 4.036 11.874 11.874 0 0 1-6.48 1.552 13.155 13.155 0 0 1-6.325-1.358c-1.663-.859-2.853-2.152-3.57-3.881a18.466 18.466 0 0 1-1.048-6.985V5.849h3.686v16.028c-.1 1.821.107 3.606.621 5.356a5.015 5.015 0 0 0 2.328 2.6 7.936 7.936 0 0 0 3.958.97c2.716 0 4.657-.621 5.782-1.863 1.164-1.203 1.707-3.57 1.707-7.063V5.849h.04zM143.212 24.71l3.492-.31a7.702 7.702 0 0 0 1.087 3.415 6.277 6.277 0 0 0 2.794 2.173c1.367.567 2.789.838 4.269.815 1.397 0 2.639-.194 3.686-.621 1.087-.388 1.901-.97 2.406-1.708a3.957 3.957 0 0 0 .776-2.406 3.474 3.474 0 0 0-.66-2.251 5.486 5.486 0 0 0-2.484-1.669c-.815-.272-2.445-.737-5.006-1.319a25.502 25.502 0 0 1-5.316-1.746 7.525 7.525 0 0 1-2.988-2.6 6.323 6.323 0 0 1-.97-3.454 6.86 6.86 0 0 1 1.203-3.92 7.207 7.207 0 0 1 3.492-2.794 13.062 13.062 0 0 1 5.083-.931c2.018 0 3.881.311 5.433 1.009a7.588 7.588 0 0 1 3.609 2.872 8.26 8.26 0 0 1 1.358 4.424l-3.492.233c-.09-1.593-.736-2.912-1.94-3.959-1.087-.893-2.716-1.358-4.851-1.358-2.212 0-3.842.388-4.851 1.242a3.607 3.607 0 0 0-1.133 1.287 3.595 3.595 0 0 0-.42 1.662c0 .97.388 1.824 1.087 2.445a14.514 14.514 0 0 0 5.588 1.979c2.096.415 4.14 1.01 6.131 1.785a8.227 8.227 0 0 1 3.57 2.833c.776 1.164 1.164 2.445 1.164 3.958a7.442 7.442 0 0 1-1.281 4.191 8.25 8.25 0 0 1-3.648 3.027c-1.872.728-3.812 1.092-5.821 1.092s-3.949-.364-5.821-1.092a8.873 8.873 0 0 1-2.269-1.349 8.87 8.87 0 0 1-1.775-1.954 8.883 8.883 0 0 1-1.502-5.001zM188.969 33.628V5.841h3.686v11.41h14.436V5.841h3.686v27.787h-3.686V20.55h-14.436v13.078zM223.475 20.169c0 3.337.854 5.976 2.678 7.917a8.818 8.818 0 0 0 3.085 2.17 8.828 8.828 0 0 0 3.706.702c2.755 0 5.045-.97 6.83-2.911 1.785-1.94 2.678-4.735 2.678-8.305 0-2.251-.388-4.23-1.164-5.899a8.961 8.961 0 0 0-1.396-2.193 8.972 8.972 0 0 0-1.964-1.703 8.973 8.973 0 0 0-4.945-1.42 9.342 9.342 0 0 0-3.623.67 9.338 9.338 0 0 0-3.09 2.008c-1.863 1.746-2.794 4.735-2.794 8.926v.038zm-3.802-.039c0-4.657 1.242-8.266 3.725-10.866a12.477 12.477 0 0 1 4.376-2.968 12.48 12.48 0 0 1 5.208-.913 13.075 13.075 0 0 1 6.868 1.785 11.657 11.657 0 0 1 4.773 5.162 16.268 16.268 0 0 1 1.63 7.451 16.153 16.153 0 0 1-1.746 7.568c-1.091 2.188-2.708 3.869-4.851 5.045a13.784 13.784 0 0 1-3.335 1.313c-1.169.293-2.355.43-3.56.413a13.77 13.77 0 0 1-3.547-.514 13.766 13.766 0 0 1-3.296-1.406 11.934 11.934 0 0 1-4.695-5.162 15.484 15.484 0 0 1-1.552-6.947M258.588 19.075h7.179c2.328 0 4.036-.466 5.045-1.358a4.678 4.678 0 0 0 1.193-1.689 4.675 4.675 0 0 0 .359-2.036c-.039-1.164-.388-2.096-.931-2.988a3.95 3.95 0 0 0-2.328-1.63 15.695 15.695 0 0 0-3.415-.233h-7.101v9.934zm-3.687 14.553V5.841h10.477a25.27 25.27 0 0 1 4.23.272 8.196 8.196 0 0 1 3.415 1.32 6.565 6.565 0 0 1 2.212 2.678 8.31 8.31 0 0 1 .854 3.726 8.447 8.447 0 0 1-.531 3.248 8.468 8.468 0 0 1-1.72 2.806c-1.475 1.63-4.191 2.445-8.149 2.445h-7.101v11.293h-3.687M288.351 19.075h7.179c2.328 0 4.036-.466 5.045-1.358a4.678 4.678 0 0 0 1.193-1.689 4.675 4.675 0 0 0 .359-2.036c-.039-1.164-.388-2.096-.931-2.988a3.95 3.95 0 0 0-2.328-1.63 15.695 15.695 0 0 0-3.415-.233h-7.101v9.934zm-3.687 14.553V5.841h10.477a25.264 25.264 0 0 1 4.23.272 8.196 8.196 0 0 1 3.415 1.32 6.565 6.565 0 0 1 2.212 2.678 8.324 8.324 0 0 1 .854 3.726 8.447 8.447 0 0 1-.531 3.248 8.468 8.468 0 0 1-1.72 2.806c-1.475 1.63-4.191 2.445-8.149 2.445h-7.101v11.293h-3.687M314.504 33.628V5.841h20.101v3.338H318.19v8.46h15.328v3.26H318.19v9.469h17.074v3.26zM35.408 4.476c-.02.061-.04.123-.065.183-.24.571-.547 1.168-.666 1.776-.061.322-.08.653-.123.977-.013.105-.073.179-.144.251a9.074 9.074 0 0 0-.491.528c-.406.479-.683 1.027-.966 1.584-.13.246-.187.516-.335.755-.145.235-.296.499-.499.688a1.182 1.182 0 0 1-.624.258 5.209 5.209 0 0 1-1.006-.041c-.111-.016-.249-.067-.299-.176-.058-.15-.052-.333-.055-.492-.006-.462.09-.922.195-1.37a2.35 2.35 0 0 0 .052-.567c-.005-.25.015-.487-.029-.724-.124.06-.243.126-.346.218-.216.192-.415.384-.549.644-.204.387-.331.851-.279 1.29.041.467.162.885.155 1.358-.005.317.012.636-.007.952a6.011 6.011 0 0 1-.383 1.562c-.156.343-.298.709-.498 1.023-.093.147-.171.3-.276.439-.205.274-.399.549-.62.807-.276.343-.55.696-.855 1.014-.235.262-.457.54-.702.793-.213.209-.407.435-.613.651.103.134.225.249.341.37l9.961 10.731c.809.867 1.616 1.736 2.418 2.609.249.296.543.546.794.838.198.226.418.437.6.676-.242.014-.481.006-.726.007-2.242.001-4.485-.002-6.727.001-.12-.006-.279.023-.386-.034-.15-.119-.271-.277-.403-.416-.74-.796-1.487-1.598-2.22-2.401-2.064-2.224-4.136-4.451-6.198-6.678-.433-.462-.855-.934-1.293-1.391-.353.359-.687.738-1.033 1.104-2.383 2.569-4.769 5.131-7.15 7.698-.559.607-1.114 1.218-1.678 1.821-.091.098-.173.217-.281.296-.2.067-.451.012-.66.013-2.367-.006-4.734-.016-7.101-.012a4.522 4.522 0 0 1-.368-.011c.096-.163.235-.28.362-.417 2.133-2.273 4.277-4.534 6.41-6.806 1.761-1.865 3.518-3.729 5.275-5.597.565-.602 1.115-1.218 1.674-1.826.169-.197.354-.378.514-.582-.134-.161-.285-.306-.421-.465-.161-.19-.347-.356-.508-.546-.363-.412-.744-.795-1.08-1.231-.398-.516-.811-.98-1.123-1.558-.098-.189-.211-.368-.292-.562a15.269 15.269 0 0 1-.351-.929c-.214-.673-.188-1.319-.184-2.012.012-.38.085-.747.129-1.122.018-.452.028-.957-.159-1.379-.129-.291-.342-.481-.564-.698-.116-.107-.218-.213-.376-.255-.065.186-.063.371-.072.565-.012.263.015.527.075.782.106.438.197.909.168 1.361-.01.137-.003.292-.052.422-.041.116-.181.117-.282.137-.263.029-.526.083-.791.088-.427-.016-.902-.183-1.139-.561-.126-.199-.272-.341-.358-.558a12.914 12.914 0 0 0-.322-.733c-.209-.457-.435-.894-.747-1.29-.2-.243-.42-.466-.649-.68-.104-.094-.106-.211-.125-.34-.035-.318-.049-.628-.123-.942-.082-.383-.237-.735-.397-1.091-.104-.259-.241-.505-.33-.769.282.035.53.134.813.212.314.104.628.207.941.312.119.036.225.076.351.05.37-.072.729-.22 1.099-.293.159-.033.319-.07.48-.092.221-.03.445-.002.675.003.389.014.748.11 1.123.205.131.032.253.075.37.144.294.166.577.267.822.506.222.22.436.452.63.697.179.249.362.476.507.745.177.343.388.665.548 1.017.254.468.457.959.715 1.425.106.188.239.346.366.519.097.127.192.26.323.354.226.165.485.281.718.439.164.113.345.195.506.312-.105.179-.25.328-.359.505.187.238.4.452.596.684l2.395 2.701c.116.134.23.268.359.39.071-.064.141-.129.203-.201.299-.356.618-.695.926-1.044.606-.674 1.205-1.354 1.818-2.022.142-.165.297-.315.419-.496-.09-.172-.243-.328-.301-.512.03-.061.081-.094.136-.13.309-.189.614-.385.923-.574.267-.162.386-.407.579-.643.258-.316.413-.687.606-1.059.244-.473.473-.966.759-1.414.114-.19.188-.384.318-.565.091-.125.178-.253.267-.379.123-.173.267-.319.413-.472.118-.122.234-.242.367-.348.226-.188.498-.319.759-.464.188-.106.384-.131.588-.187.21-.053.41-.116.628-.135.354-.025.701-.061 1.056-.015.293.017.551.114.831.189.146.04.286.095.43.141.112.033.215.067.333.043.221-.046.434-.134.652-.192a5.42 5.42 0 0 0 .756-.245c.169-.056.353-.141.532-.119z"/>
</svg>
